<?xml version="1.0" encoding="UTF-8"?>
<svg xmlns="http://www.w3.org/2000/svg" width="24" height="24" viewBox="0 0 24 24">
	<path fill-rule="evenodd" d="M12 15.5a3.5 3.5 0 1 1 0-7 3.5 3.5 0 0 1 0 7M5.516 8.227a7.454 7.454 0 0 0-.769 1.856l-2.746.417v3l2.746.417c.174.658.434 1.281.77 1.856l-1.65 2.238 2.123 2.121 2.238-1.648a7.455 7.455 0 0 0 1.855.769L10.5 22h3l.417-2.747a7.455 7.455 0 0 0 1.855-.77l2.239 1.65 2.12-2.123-1.647-2.237a7.454 7.454 0 0 0 .769-1.856L22 13.5v-3l-2.747-.417a7.454 7.454 0 0 0-.77-1.856l1.65-2.238-2.123-2.121-2.238 1.648a7.455 7.455 0 0 0-1.855-.769L13.5 2h-3l-.417 2.747a7.455 7.455 0 0 0-1.855.77l-2.239-1.65L3.87 5.99l1.647 2.237z"/>
</svg>
