<?xml version="1.0" encoding="UTF-8"?>
<svg xmlns="http://www.w3.org/2000/svg" viewBox="271.5 72.8 16 16">
	<path d="M273.59 72.8c-2.03 0-2.09 1.907-2.09 2.032V88.8h13.91c2.03 0 2.09-1.907 2.09-2.032V72.8h-13.91z"/>
	<g fill="#fff" transform="matrix(.042 0 0 .042 259.047 68.752)">
		<circle cx="437" cy="234.1" r="28"/>
		<circle cx="553.5" cy="234.1" r="28"/>
	</g>
	<path fill="#fff" d="M279.88 85.338c-1.8 0-3.533-.617-4.583-1.61-.248-.247-.248-.68 0-.927s.68-.243.928 0c.806.81 2.167 1.24 3.654 1.24 1.42 0 2.784-.43 3.59-1.24.244-.243.68-.243.924 0s.248.68 0 .93c-1.113.99-2.722 1.61-4.52 1.61z"/>
</svg>
