<?xml version="1.0" encoding="UTF-8"?>
<svg xmlns="http://www.w3.org/2000/svg" width="20" height="17" viewBox="0 0 20 17">
	<title>
		history
	</title>
	<path fill="#fff" d="M11.424 0C6.686 0 2.857 3.806 2.857 8.5H0l3.71 3.68.066.136L7.62 8.5H4.76c0-3.65 2.986-6.61 6.667-6.61 3.68 0 6.665 2.96 6.665 6.61 0 3.65-2.985 6.61-6.666 6.61a6.668 6.668 0 0 1-4.71-1.94l-1.35 1.337A8.553 8.553 0 0 0 11.426 17C16.16 17 20 13.194 20 8.5S16.162 0 11.424 0zm-1.037 5v4.524l3.904 2.298.66-1.1-3.192-1.877V5H10.39z"/>
</svg>
