<svg xmlns="http://www.w3.org/2000/svg" width="20" height="20"><path d="m12.879 2.164-9.465 9.473 3.918 3.918-.004-.055a3 3 0 0 1 .777-2l-1.863-1.863 6.637-6.643L15 7.115l-5.504 5.51a3 3 0 0 1 .832-.125h2.12l5.38-5.385zM2 13.051V18h4.95z"/><path d="M15.414 13h-1.455a2.44 2.44 0 0 1 .775 1h.595a1.5 1.5 0 1 1 0 3h-1.5a1.5 1.5 0 0 1-1.41-2h-1.05a2.4 2.4 0 0 0-.04.415v.17A2.415 2.415 0 0 0 13.744 18h1.67a2.415 2.415 0 0 0 2.415-2.415v-.17A2.415 2.415 0 0 0 15.414 13m-5.17 5h1.455a2.44 2.44 0 0 1-.775-1h-.595a1.5 1.5 0 1 1 0-3h1.5a1.5 1.5 0 0 1 1.41 2h1.05a2.4 2.4 0 0 0 .04-.415v-.17A2.415 2.415 0 0 0 11.914 13h-1.67a2.415 2.415 0 0 0-2.415 2.415v.17A2.415 2.415 0 0 0 10.244 18"/></svg>